<?xml version="1.0" encoding="UTF-8"?> <svg xmlns="http://www.w3.org/2000/svg" id="Layer_1" data-name="Layer 1" viewBox="0 0 882 766"><defs><style> .cls-1, .cls-2, .cls-3, .cls-4 { opacity: .7; } .cls-5 { fill: #03082e; } .cls-6, .cls-7, .cls-8, .cls-9, .cls-10, .cls-2, .cls-3, .cls-11, .cls-12, .cls-13 { fill: #fff; } .cls-7, .cls-14, .cls-15 { opacity: .3; } .cls-16, .cls-17, .cls-12, .cls-18 { opacity: .2; } .cls-8 { opacity: .5; } .cls-9 { stroke: #03082e; stroke-miterlimit: 10; } .cls-10 { opacity: .8; } .cls-2, .cls-17, .cls-11, .cls-15, .cls-4, .cls-12, .cls-13 { isolation: isolate; } .cls-19 { fill: #e1e1e1; } .cls-20 { stroke: #3fa0ef; stroke-width: .75px; } .cls-20, .cls-18 { fill: none; stroke-linejoin: round; } .cls-21 { fill: #ff7c77; } .cls-11 { opacity: .4; } .cls-22 { fill: #ffbdb6; } .cls-23 { fill: #3fa0ef; } .cls-24 { fill: #ececec; } .cls-18 { stroke: #000; stroke-linecap: round; stroke-width: .5px; } .cls-13 { opacity: .6; } </style></defs><g><g><path class="cls-23" d="m699.51,255.23c-19.18,47.63-46.47,91.58-80.65,129.9-20.61-12.8-41.22-25.59-61.83-38.39,34.18-38.32,61.47-82.27,80.65-129.9,20.61,12.8,41.22,25.59,61.83,38.39Z"></path><path class="cls-11" d="m699.52,255.22c-19.19,47.64-46.47,91.59-80.65,129.9-8.9-5.53-17.81-11.06-26.72-16.59h0c-11.7-7.26-23.39-14.53-35.1-21.8,34.18-38.32,61.47-82.27,80.65-129.9,20.61,12.8,41.22,25.59,61.83,38.38Z"></path><path class="cls-17" d="m647.86,227.7c-2.1,5.09-7.68,6.83-12.33,3.94-16.92,38.51-39.23,74.43-66.24,106.67,4.65,2.89,5.56,8.66,1.93,12.79,12.85,7.98,25.69,15.95,38.54,23.93,3.63-4.14,10.25-5.23,14.9-2.35,27.01-32.24,49.32-68.16,66.24-106.67-4.65-2.88-6.6-9.3-4.5-14.39.01-.03.02-.05.03-.08-12.85-7.98-25.69-15.95-38.54-23.93-.01.03-.02.05-.03.08Zm1.79,87.6c-5.93,9.53-18.86,12.21-28.35,6.32-9.51-5.9-11.99-18.15-6.06-27.68,5.95-9.52,18.05-12.71,27.56-6.81,9.5,5.89,12.79,18.65,6.85,28.17Z"></path><g class="cls-17"><path d="m642.73,308.46c.85.53,1.7,1.06,2.55,1.58-.39.63-.77,1.25-1.16,1.88-.84-.52-1.69-1.05-2.53-1.57-1.53,2.16-3.64,3.86-5.42,4.4-.55-.82-1.1-1.63-1.65-2.45,1.62-.55,3.37-1.84,4.61-3.48-1.52-.94-3.04-1.89-4.56-2.83-2.19,2.16-4.75,4.34-7.92,2.37-2.33-1.45-3.26-4.37-1.38-8.15-.86-.53-1.72-1.07-2.58-1.6.39-.62.78-1.25,1.16-1.88.84.52,1.69,1.05,2.53,1.57,1.14-1.64,2.69-3.06,4.23-3.81.58.79,1.16,1.58,1.73,2.38-1.44.78-2.62,1.83-3.5,2.96,1.53.95,3.07,1.91,4.6,2.86,2.19-2.16,4.66-4.46,7.82-2.5,2.32,1.44,3.31,4.43,1.45,8.26Zm-10.92-4.18c-1.35-.84-2.7-1.68-4.06-2.52-.76,1.78-.38,2.97.63,3.59,1.09.68,2.22.01,3.43-1.07Zm7.89-1c-1.12-.69-2.26,0-3.49,1.13,1.34.83,2.69,1.67,4.03,2.5.78-1.83.44-3.02-.54-3.63Z"></path></g></g><path class="cls-17" d="m699.52,255.22c-19.19,47.64-46.47,91.59-80.65,129.9-8.9-5.53-17.81-11.06-26.72-16.59h0s-21.21-35.83-21.21-35.83c0,0,84.61-35.06,128.59-77.49Z"></path><g><path class="cls-23" d="m745.43,322.13c-39.4,32.93-84.21,58.79-132.43,76.42-12.12-21.01-24.25-42.02-36.37-63.03,48.23-17.64,93.03-43.49,132.43-76.42,12.12,21.01,24.25,42.02,36.37,63.03Z"></path><path class="cls-11" d="m745.43,322.13c-39.4,32.93-84.21,58.79-132.43,76.42-12.12-21.01-24.25-42.02-36.37-63.03,48.23-17.64,93.03-43.49,132.43-76.42,12.12,21.01,24.25,42.02,36.37,63.03Z"></path><path class="cls-17" d="m712.9,273.47c-4.25,3.49-9.99,2.4-12.73-2.34-33.1,25.96-69.72,47.08-108.76,62.75,2.74,4.74.82,10.26-4.34,12.19,7.56,13.1,15.11,26.19,22.67,39.29,5.16-1.93,11.5.23,14.24,4.97,39.04-15.67,75.66-36.79,108.76-62.75-2.74-4.74-1.43-11.32,2.83-14.81.02-.02.04-.04.06-.05-7.56-13.1-15.11-26.19-22.67-39.29-.02.02-.04.04-.06.05Zm-39.79,78.06c-9.73,5.6-22.39,1.86-27.97-7.82-5.59-9.69-2-21.66,7.73-27.26,9.74-5.59,21.92-2.68,27.51,7.02,5.59,9.68,2.47,22.48-7.27,28.06Z"></path><g class="cls-17"><path d="m670.24,342.24c.5.87,1,1.73,1.5,2.6-.64.37-1.27.74-1.91,1.1-.5-.86-.99-1.72-1.49-2.58-2.37,1.18-5.03,1.68-6.86,1.31-.1-.98-.2-1.96-.3-2.94,1.69.29,3.84-.03,5.71-.89-.89-1.55-1.79-3.1-2.68-4.65-2.95.86-6.24,1.58-8.1-1.65-1.37-2.37-.81-5.4,2.63-7.83-.51-.88-1.01-1.75-1.52-2.63.64-.37,1.28-.73,1.91-1.1.5.86.99,1.72,1.49,2.58,1.78-.91,3.81-1.43,5.53-1.36.14.97.27,1.94.41,2.91-1.64,0-3.17.38-4.49.96.9,1.56,1.81,3.13,2.71,4.69,2.95-.87,6.21-1.73,8.07,1.49,1.37,2.37.82,5.46-2.62,7.96Zm-7.65-8.84c-.8-1.38-1.59-2.76-2.39-4.14-1.51,1.21-1.73,2.44-1.14,3.46.64,1.12,1.95,1.06,3.53.67Zm7.43,2.85c-.66-1.14-1.98-1.07-3.61-.65.79,1.37,1.58,2.74,2.37,4.11,1.55-1.24,1.81-2.46,1.24-3.46Z"></path></g></g></g><g><g><rect class="cls-23" x="224.39" y="53.98" width="415.09" height="607.11" rx="6.75" ry="6.75"></rect><rect class="cls-8" x="224.39" y="53.98" width="415.09" height="607.11" rx="6.75" ry="6.75"></rect><polygon class="cls-24" points="256.88 70.57 238.58 70.57 238.58 645.66 622.38 648.93 632.99 635.74 623.7 93.24 256.88 70.57"></polygon><polygon class="cls-19" points="632.99 635.74 253.49 635.74 253.49 70.57 238.58 70.57 238.58 648.93 622.38 648.93 632.99 635.74"></polygon><polygon class="cls-16" points="238.58 648.93 253.49 635.74 632.99 635.74 622.38 648.93 238.58 648.93"></polygon><path class="cls-9" d="m665.68,617.18h-374.98c-36.53-90.9-43-322.17-37.21-546.62h372.31c-3.04,224.32,4.3,425.75,39.87,546.62Z"></path><g><rect class="cls-17" x="318.79" y="565.72" width="303.49" height="27.48"></rect><rect class="cls-16" x="276.89" y="114.95" width="80.81" height="87.11"></rect><path class="cls-23" d="m345.73,553.56s-23.86-110.97-26.94-163.26h36.94c4.34,52.72,14.4,107.02,27.7,162.23l-37.71,1.04Z"></path><path class="cls-23" d="m397.37,553.56s-16.68-79.91-19.76-136.92h36.94c4.34,57.47,7.22,75.6,20.53,135.79l-37.71,1.13Z"></path><path class="cls-23" d="m551.93,553.56s-16.68-79.91-19.76-136.92h36.94c4.34,57.47,7.22,75.6,20.53,135.79l-37.71,1.13Z"></path><path class="cls-23" d="m450.66,553.56s-8.59-36.23-15.58-95.34h36.94c4.34,57.47,16.35,94.21,16.35,94.21l-37.71,1.13Z"></path><path class="cls-23" d="m504.24,553.56s-5.19-9.35-12.17-68.46h36.94c4.34,57.47,12.94,67.33,12.94,67.33l-37.71,1.13Z"></path><path class="cls-5" d="m298.81,381.71c.01,5.2.55,10.44.9,15.63.78,11.5,1.7,23,2.74,34.48,1.33,14.69,2.86,29.36,4.71,44s3.9,28.83,6.69,43.1c2.16,11.08,4.56,22.38,8.81,32.88.39.97.81,1.94,1.25,2.89.11.23.4.37.65.37,2.47-.02,4.93-.03,7.4-.05,6.71-.05,13.42-.09,20.12-.14,9.88-.07,19.76-.13,29.63-.2,12.09-.08,24.19-.16,36.28-.25,13.25-.09,26.5-.18,39.74-.27,13.32-.09,26.64-.18,39.97-.27,12.47-.08,24.94-.17,37.4-.25,10.5-.07,21-.14,31.49-.21,7.58-.05,15.16-.1,22.74-.15,3.58-.02,7.16.02,10.74-.07.16,0,.31,0,.47,0,.96,0,.97-1.51,0-1.5-2.47.02-4.93.03-7.4.05-6.71.05-13.42.09-20.12.14-9.88.07-19.76.13-29.63.2-12.09.08-24.19.16-36.28.25-13.25.09-26.5.18-39.74.27-13.32.09-26.64.18-39.97.27-12.47.08-24.94.17-37.4.25-10.5.07-21,.14-31.49.21-7.58.05-15.16.1-22.74.15l-7.05.05c-1.2,0-2.5-.12-3.69.03-.15.02-.31,0-.47,0l.65.37c-4.48-9.75-6.85-20.54-9.02-30.99-2.92-14.07-5.07-28.3-6.93-42.55s-3.49-29.24-4.86-43.9c-1.12-11.99-2.11-24-2.95-36.01-.43-6.07-.83-12.13-1.11-18.21,0-.19-.01-.37-.01-.56,0-.97-1.5-.97-1.5,0h0Z"></path><rect class="cls-17" x="367.56" y="115.74" width="54.84" height="10.28"></rect><rect class="cls-17" x="367.56" y="132.76" width="19.6" height="19.6"></rect><path class="cls-23" d="m443.28,231.84h77.99c0,42.78-35.2,77.99-77.99,77.99s-77.99-35.2-77.99-77.99c0-31.18,18.7-59.49,47.38-71.73l30.61,71.73Z"></path><path class="cls-23" d="m447.1,220.63l-29.65-72.13c9.41-3.87,19.48-5.85,29.65-5.85,19.78,0,38.83,7.52,53.28,21.04l-53.28,56.95Z"></path><path class="cls-17" d="m447.1,220.63l-29.65-72.13c9.41-3.87,19.48-5.85,29.65-5.85,19.78,0,38.83,7.52,53.28,21.04l-53.28,56.95Z"></path><path class="cls-23" d="m454.67,224.92l55.7-54.59c6.77,6.91,12.2,15.02,16.01,23.91,3.81,8.89,5.92,18.42,6.24,28.09l-77.94,2.59Z"></path><path class="cls-7" d="m454.67,224.92l55.7-54.59c6.77,6.91,12.2,15.02,16.01,23.91,3.81,8.89,5.92,18.42,6.24,28.09l-77.94,2.59Z"></path><path class="cls-5" d="m527.89,299.3h64.04c.48,0,.48-.75,0-.75h-64.04c-.48,0-.48.75,0,.75h0Z"></path><path class="cls-5" d="m528.34,305.58h64.04c.48,0,.48-.75,0-.75h-64.04c-.48,0-.48.75,0,.75h0Z"></path><path class="cls-5" d="m528.34,311.86h31.57c.48,0,.48-.75,0-.75h-31.57c-.48,0-.48.75,0,.75h0Z"></path><path class="cls-5" d="m518.17,142.93h64.04c.48,0,.48-.75,0-.75h-64.04c-.48,0-.48.75,0,.75h0Z"></path><path class="cls-5" d="m518.17,149.21h64.04c.48,0,.48-.75,0-.75h-64.04c-.48,0-.48.75,0,.75h0Z"></path><path class="cls-5" d="m518.17,155.49h31.57c.48,0,.48-.75,0-.75h-31.57c-.48,0-.48.75,0,.75h0Z"></path><path class="cls-5" d="m289.1,262.84h64.04c.48,0,.48-.75,0-.75h-64.04c-.48,0-.48.75,0,.75h0Z"></path><path class="cls-5" d="m289.1,269.12h64.04c.48,0,.48-.75,0-.75h-64.04c-.48,0-.48.75,0,.75h0Z"></path><path class="cls-5" d="m289.1,275.4h31.57c.48,0,.48-.75,0-.75h-31.57c-.48,0-.48.75,0,.75h0Z"></path><g><path class="cls-6" d="m495.9,270.14c7.63,4.69,15.26,9.39,22.89,14.08"></path><path class="cls-5" d="m495.71,270.46c7.63,4.69,15.26,9.39,22.89,14.08.41.25.79-.39.38-.65-7.63-4.69-15.26-9.39-22.89-14.08-.41-.25-.79.39-.38.65h0Z"></path></g><path class="cls-5" d="m521.67,284.22c0,1.6-1.29,2.89-2.89,2.89s-2.89-1.29-2.89-2.89,1.29-2.89,2.89-2.89,2.89,1.29,2.89,2.89Z"></path><g><line class="cls-6" x1="489.91" y1="158.5" x2="503.72" y2="144.8"></line><path class="cls-5" d="m490.17,158.77c4.03-4,8.05-7.99,12.08-11.99.58-.57,1.16-1.15,1.74-1.72.34-.34-.19-.87-.53-.53-4.03,4-8.05,7.99-12.08,11.99-.58.57-1.16,1.15-1.74,1.72-.34.34.19.87.53.53h0Z"></path></g><path class="cls-5" d="m505.68,141.21c1.57.41,2.52,1.95,2.13,3.44-.39,1.49-1.98,2.36-3.55,1.95-1.57-.41-2.52-1.95-2.13-3.44s1.98-2.36,3.55-1.95Z"></path><path class="cls-5" d="m367.56,230.33h-43.47c-.48,0-.48.75,0,.75h43.47c.48,0,.48-.75,0-.75h0Z"></path><path class="cls-5" d="m320.15,231.79c-.79-1.41-.35-3.17,1-3.92s3.07-.22,3.86,1.2c.79,1.41.35,3.17-1,3.92s-3.07.22-3.86-1.2Z"></path><rect class="cls-17" x="295.78" y="337.34" width="295.01" height="29.66"></rect><rect class="cls-17" x="536.57" y="254.55" width="22.14" height="35.04"></rect><rect class="cls-17" x="564.57" y="271.63" width="22.14" height="18.3"></rect><rect class="cls-17" x="285.08" y="291.63" width="24.12" height="24.12"></rect><rect class="cls-17" x="317.3" y="291.63" width="44.02" height="24.12"></rect><circle class="cls-17" cx="567.5" cy="209.1" r="16.93" transform="translate(233.13 713.06) rotate(-76.66)"></circle></g><polygon class="cls-16" points="365.28 53.98 365.28 97.92 501.98 98.68 501.76 90.61 436.14 51.82 365.28 53.98"></polygon><path class="cls-5" d="m380.99,44.71h119.86c4.2,0,7.61,3.41,7.61,7.61v38.3h-135.07v-38.3c0-4.2,3.41-7.61,7.61-7.61Z"></path><path class="cls-5" d="m415.95,48.31l-5.14-17.79c-.38-1.31.53-2.64,1.8-2.64h60.44c1.3,0,2.21,1.38,1.78,2.7l-6.05,18.63c-.27.83-1,1.37-1.81,1.36l-49.25-.84c-.81-.01-1.53-.59-1.77-1.43Z"></path><path class="cls-20" d="m269.93,45.39h95.35"></path><line class="cls-20" x1="264.53" y1="45.39" x2="249.7" y2="45.39"></line><path d="m418.2,43.16h52.47c.97,0,.97-1.5,0-1.5h-52.47c-.97,0-.97,1.5,0,1.5h0Z"></path></g><g><rect class="cls-23" x="571.14" y="96.25" width="112.2" height="112.2" rx="6.35" ry="6.35"></rect><rect class="cls-10" x="571.14" y="96.25" width="112.2" height="112.2" rx="6.35" ry="6.35"></rect><g class="cls-14"><path d="m588.39,112.98v78.14c0,.2.17.38.38.38h76.96c.48,0,.48-.75,0-.75h-76.96l.38.38v-78.14c0-.48-.75-.48-.75,0h0Z"></path></g><g class="cls-14"><path d="m608.45,112.64v78.35c0,.48.75.48.75,0v-78.35c0-.48-.75-.48-.75,0h0Z"></path></g><g class="cls-14"><path d="m628.23,112.64v78.35c0,.48.75.48.75,0v-78.35c0-.48-.75-.48-.75,0h0Z"></path></g><g class="cls-14"><path d="m648.02,112.64v78.35c0,.48.75.48.75,0v-78.35c0-.48-.75-.48-.75,0h0Z"></path></g><g class="cls-14"><path d="m589.2,171.71h75.9c.48,0,.48-.75,0-.75h-75.9c-.48,0-.48.75,0,.75h0Z"></path></g><g class="cls-14"><path d="m589.2,152.19h75.9c.48,0,.48-.75,0-.75h-75.9c-.48,0-.48.75,0,.75h0Z"></path></g><g class="cls-14"><path d="m589.2,131.67h75.9c.48,0,.48-.75,0-.75h-75.9c-.48,0-.48.75,0,.75h0Z"></path></g><path class="cls-5" d="m590.19,150.63c2.68-5.89,6.12-12.38,12-15.53,4.17-2.23,9.44-3.26,12.93.67,1.66,1.88,2.67,4.27,3.54,6.59,1,2.68,1.93,5.4,2.89,8.09,1.01,2.85,2.03,5.69,3.04,8.54.87,2.45,1.69,4.95,3.03,7.19,2.06,3.43,5.99,6.4,10.14,4.75,3.61-1.43,5.53-5.65,7.12-8.9,1.14-2.33,2.25-4.7,3.18-7.12,2.35-6.13,7.27-12.21,14.36-12.25.48,0,.48-.75,0-.75-6.58.04-11.35,4.98-14.09,10.54-.75,1.51-1.3,3.11-1.98,4.66-1.68,3.78-3.33,8.08-6.17,11.16-1.76,1.91-4.18,2.89-6.75,2.08s-4.47-3.13-5.69-5.48c-1.38-2.65-2.25-5.58-3.25-8.38s-2.08-5.85-3.12-8.77c-1.55-4.35-2.8-9.63-6.2-12.98-3.12-3.08-7.44-2.79-11.26-1.26-4.29,1.72-7.32,4.68-9.81,8.49-1.72,2.63-3.26,5.42-4.56,8.29-.2.44.45.82.65.38h0Z"></path><circle class="cls-23" cx="648.39" cy="152.59" r="4.07"></circle><path class="cls-23" d="m637.39,171.33c0,2.25-1.82,4.07-4.07,4.07s-4.07-1.82-4.07-4.07,1.82-4.07,4.07-4.07,4.07,1.82,4.07,4.07Z"></path><circle class="cls-23" cx="609.79" cy="132.14" r="4.07"></circle></g><g><g><rect class="cls-23" x="74.54" y="122.72" width="128.84" height="128.84" rx="6.35" ry="6.35"></rect><rect class="cls-3" x="74.54" y="122.72" width="128.84" height="128.84" rx="6.35" ry="6.35"></rect></g><g><path class="cls-23" d="m141.13,143.7c-24.14,0-43.71,19.57-43.71,43.71s19.57,43.71,43.71,43.71,43.71-19.57,43.71-43.71-19.57-43.71-43.71-43.71Zm0,69.95c-13.98,0-25.31-11.33-25.31-25.31s11.33-25.31,25.31-25.31,25.31,11.33,25.31,25.31-11.33,25.31-25.31,25.31Z"></path><g><path class="cls-7" d="m146.83,144.08l-3.75,19.02s0,0,0,0c12.63.97,22.67,11.21,23.31,23.93,4.87-1.26,11.84-3.22,18.09-5.01-2.43-19.72-17.98-35.37-37.66-37.94Z"></path><path class="cls-6" d="m141.13,143.7c-16.25,0-30.42,8.87-37.95,22.03l15.86,10.24c4.33-7.72,12.6-12.95,22.08-12.95.66,0,1.3.03,1.95.08,0,0,0,0,0,0l3.75-19.02c-1.87-.24-3.77-.38-5.71-.38Z"></path><path class="cls-5" d="m97.41,187.41c0,.77.02,1.54.06,2.31,6.2,0,14.17.08,18.39.12-.03-.5-.05-1-.05-1.5,0-4.49,1.17-8.71,3.23-12.36l-15.86-10.24c-3.66,6.39-5.76,13.79-5.76,21.68Z"></path></g></g></g><g><g id="freepik--Bitcoin--inject-488"><path class="cls-23" d="m721.38,138.65c22.79,17.01,54.2,13.45,70.17-7.94l5.68-7.61-82.52-61.58-5.68,7.61c-15.97,21.39-10.44,52.52,12.35,69.53Z"></path><path class="cls-15" d="m721.38,138.65c22.79,17.01,54.2,13.45,70.17-7.94l5.68-7.61-82.52-61.58-5.68,7.61c-15.97,21.39-10.44,52.52,12.35,69.53Z"></path><path class="cls-23" d="m806.92,84.9c4.09,28.14-15.41,54.26-43.55,58.35-28.14,4.09-54.26-15.41-58.35-43.55-4.09-28.14,15.41-54.26,43.55-58.35,28.14-4.09,54.26,15.41,58.35,43.55Z"></path><circle class="cls-23" cx="755.97" cy="92.3" r="41.22" transform="translate(586.64 834.82) rotate(-84.12)"></circle><circle class="cls-7" cx="755.97" cy="92.3" r="41.22" transform="translate(586.64 834.82) rotate(-84.12)"></circle></g><path class="cls-23" d="m772.85,96.95c-.01,2.7-.86,5.24-2.53,7.62l.95.98c.48.49.72,1.11.72,1.84,0,.73-.24,1.34-.74,1.82-.49.48-1.09.7-1.78.67-.69-.04-1.29-.31-1.8-.83l-.83-.86c-2.07,1.56-4.23,2.54-6.45,2.93-2.23.39-4.23.24-6.02-.45-.84-.34-1.45-.71-1.83-1.1-.51-.52-.75-1.15-.74-1.9.01-.74.29-1.38.84-1.91.44-.43.96-.68,1.55-.75s1.17.03,1.73.29c1.12.58,2.34.77,3.67.57,1.33-.2,2.58-.67,3.77-1.43l-7.96-8.5c-2.84,1.4-5.41,2.15-7.71,2.26-2.3.11-4.32-.74-6.06-2.53-1.77-1.82-2.63-3.96-2.58-6.41.05-2.45,1.02-4.88,2.93-7.29l-.8-.82c-.48-.49-.73-1.1-.74-1.82-.02-.72.21-1.3.68-1.76.49-.48,1.11-.71,1.84-.69.73.02,1.34.28,1.82.78l.76.78c2.31-1.84,4.54-2.84,6.68-3,2.15-.16,3.95.51,5.42,2.02.56.57.84,1.23.84,1.96,0,.73-.26,1.35-.78,1.86-.47.46-1.01.69-1.63.71-.62.02-1.18-.18-1.69-.6-.61-.47-1.4-.65-2.38-.53-.98.12-2.01.52-3.1,1.23l7.05,7.57c6.2-3.04,10.95-2.87,14.23.51,1.8,1.85,2.69,4.12,2.68,6.81Zm-25.29-4.15c1.01,0,2.32-.32,3.92-.97l-6.07-6.32c-.92,1.24-1.39,2.4-1.43,3.48-.04,1.08.32,2.01,1.08,2.79.66.68,1.49,1.02,2.51,1.02Zm20.38,4.29c-.02-1.3-.43-2.36-1.24-3.19-.66-.68-1.53-1.06-2.62-1.13-1.09-.08-2.5.24-4.23.96l6.94,7.22c.79-1.27,1.17-2.55,1.15-3.85Z"></path><path class="cls-23" d="m714.19,95.86c-1.95-23.08,15.18-43.36,38.26-45.31,23.08-1.95,43.36,15.18,45.31,38.26-4.31-20.76-23.45-35.04-44.58-33.25-23.08,1.95-40.2,22.23-38.26,45.31-.34-1.65-.59-3.32-.73-5Z"></path><path class="cls-15" d="m714.19,95.86c-1.95-23.08,15.18-43.36,38.26-45.31,23.08-1.95,43.36,15.18,45.31,38.26-4.31-20.76-23.45-35.04-44.58-33.25-23.08,1.95-40.2,22.23-38.26,45.31-.34-1.65-.59-3.32-.73-5Z"></path></g><g><g id="freepik--Bitcoin--inject-488-2" data-name="freepik--Bitcoin--inject-488"><path class="cls-23" d="m135.51,88.2c17.98,13.42,42.77,10.61,55.36-6.27l4.48-6.01-65.11-48.59-4.48,6.01c-12.6,16.88-8.23,41.44,9.74,54.86Z"></path><path class="cls-15" d="m135.51,88.2c17.98,13.42,42.77,10.61,55.36-6.27l4.48-6.01-65.11-48.59-4.48,6.01c-12.6,16.88-8.23,41.44,9.74,54.86Z"></path><circle class="cls-23" cx="162.8" cy="51.63" r="40.62" transform="translate(8.81 125.49) rotate(-43.22)"></circle><path class="cls-23" d="m143.35,77.69c14.39,10.74,34.77,7.78,45.52-6.61,10.74-14.39,7.78-34.77-6.61-45.52-14.39-10.74-34.77-7.78-45.52,6.61-10.74,14.39-7.78,34.77,6.61,45.52Z"></path><path class="cls-7" d="m143.35,77.69c14.39,10.74,34.77,7.78,45.52-6.61,10.74-14.39,7.78-34.77-6.61-45.52-14.39-10.74-34.77-7.78-45.52,6.61-10.74,14.39-7.78,34.77,6.61,45.52Z"></path></g><path class="cls-23" d="m176.12,55.29c0,2.13-.68,4.13-2,6.02l.75.77c.38.39.57.87.57,1.45,0,.58-.19,1.06-.58,1.43-.39.38-.86.55-1.4.53-.55-.03-1.02-.25-1.42-.66l-.66-.68c-1.64,1.23-3.33,2-5.09,2.31-1.76.31-3.34.19-4.75-.36-.66-.27-1.15-.56-1.45-.87-.4-.41-.6-.91-.59-1.5,0-.59.23-1.09.66-1.51.35-.34.76-.53,1.22-.59s.92.02,1.36.23c.88.46,1.85.61,2.89.45,1.05-.16,2.04-.53,2.98-1.13l-6.28-6.71c-2.24,1.1-4.27,1.7-6.08,1.78-1.81.08-3.41-.58-4.78-2-1.4-1.44-2.08-3.12-2.04-5.05.04-1.93.81-3.85,2.31-5.75l-.63-.65c-.38-.39-.57-.87-.59-1.44-.01-.57.17-1.03.53-1.39.39-.38.87-.56,1.45-.54.58.02,1.06.22,1.43.61l.6.62c1.82-1.45,3.58-2.24,5.27-2.37,1.69-.13,3.12.4,4.28,1.59.44.45.66.97.66,1.54,0,.58-.2,1.07-.61,1.46-.37.36-.8.55-1.28.56-.49.01-.93-.15-1.33-.47-.48-.37-1.11-.51-1.88-.42-.77.09-1.58.41-2.44.97l5.56,5.97c4.89-2.4,8.64-2.27,11.23.4,1.42,1.46,2.12,3.25,2.11,5.37Zm-19.95-3.27c.8,0,1.83-.25,3.09-.76l-4.79-4.99c-.72.98-1.1,1.9-1.13,2.75-.03.85.25,1.58.85,2.2.52.53,1.18.8,1.98.8Zm16.08,3.39c-.02-1.02-.34-1.86-.98-2.52-.52-.53-1.21-.83-2.07-.89-.86-.06-1.97.19-3.34.76l5.48,5.7c.62-1,.92-2.02.91-3.04Z"></path><path class="cls-23" d="m129.83,54.43c-1.54-18.21,11.98-34.21,30.19-35.75,18.21-1.54,34.21,11.98,35.75,30.19-3.4-16.38-18.5-27.64-35.17-26.24-18.21,1.54-31.72,17.54-30.19,35.75-.27-1.3-.46-2.62-.57-3.95Z"></path><path class="cls-15" d="m129.83,54.43c-1.54-18.21,11.98-34.21,30.19-35.75,18.21-1.54,34.21,11.98,35.75,30.19-3.4-16.38-18.5-27.64-35.17-26.24-18.21,1.54-31.72,17.54-30.19,35.75-.27-1.3-.46-2.62-.57-3.95Z"></path></g><g><g><g><g><rect class="cls-23" x="178.84" y="682.69" width="120.75" height="21.02"></rect><g><g class="cls-14"><path class="cls-5" d="m189.03,683.84v18.83c0,.48.75.48.75,0v-18.83c0-.48-.75-.48-.75,0h0Z"></path></g><g class="cls-14"><path class="cls-5" d="m199.01,683.84v18.83c0,.48.75.48.75,0v-18.83c0-.48-.75-.48-.75,0h0Z"></path></g><g class="cls-14"><path class="cls-5" d="m208.84,683.84v18.83c0,.48.75.48.75,0v-18.83c0-.48-.75-.48-.75,0h0Z"></path></g><g class="cls-14"><path class="cls-5" d="m218.68,683.84v18.83c0,.48.75.48.75,0v-18.83c0-.48-.75-.48-.75,0h0Z"></path></g><g class="cls-14"><path class="cls-5" d="m228.51,683.84v18.83c0,.48.75.48.75,0v-18.83c0-.48-.75-.48-.75,0h0Z"></path></g><g class="cls-14"><path class="cls-5" d="m238.35,683.84v18.83c0,.48.75.48.75,0v-18.83c0-.48-.75-.48-.75,0h0Z"></path></g><g class="cls-14"><path class="cls-5" d="m248.18,683.84v18.83c0,.48.75.48.75,0v-18.83c0-.48-.75-.48-.75,0h0Z"></path></g><g class="cls-14"><path class="cls-5" d="m258.02,683.84v18.83c0,.48.75.48.75,0v-18.83c0-.48-.75-.48-.75,0h0Z"></path></g><g class="cls-14"><path class="cls-5" d="m267.85,683.84v18.83c0,.48.75.48.75,0v-18.83c0-.48-.75-.48-.75,0h0Z"></path></g><g class="cls-14"><path class="cls-5" d="m277.69,683.84v18.83c0,.48.75.48.75,0v-18.83c0-.48-.75-.48-.75,0h0Z"></path></g><g class="cls-14"><path class="cls-5" d="m287.52,683.84v18.83c0,.48.75.48.75,0v-18.83c0-.48-.75-.48-.75,0h0Z"></path></g></g><rect class="cls-23" x="177.03" y="723.56" width="120.75" height="21.02"></rect><rect class="cls-23" x="186.27" y="703.09" width="120.75" height="21.02"></rect><rect class="cls-16" x="186.27" y="703.09" width="120.75" height="21.02"></rect><g><g class="cls-14"><path class="cls-5" d="m197.02,704.18v18.83c0,.48.75.48.75,0v-18.83c0-.48-.75-.48-.75,0h0Z"></path></g><g class="cls-14"><path class="cls-5" d="m207,704.18v18.83c0,.48.75.48.75,0v-18.83c0-.48-.75-.48-.75,0h0Z"></path></g><g class="cls-14"><path class="cls-5" d="m216.84,704.18v18.83c0,.48.75.48.75,0v-18.83c0-.48-.75-.48-.75,0h0Z"></path></g><g class="cls-14"><path class="cls-5" d="m226.67,704.18v18.83c0,.48.75.48.75,0v-18.83c0-.48-.75-.48-.75,0h0Z"></path></g><g class="cls-14"><path class="cls-5" d="m236.5,704.18v18.83c0,.48.75.48.75,0v-18.83c0-.48-.75-.48-.75,0h0Z"></path></g><g class="cls-14"><path class="cls-5" d="m246.34,704.18v18.83c0,.48.75.48.75,0v-18.83c0-.48-.75-.48-.75,0h0Z"></path></g><g class="cls-14"><path class="cls-5" d="m256.17,704.18v18.83c0,.48.75.48.75,0v-18.83c0-.48-.75-.48-.75,0h0Z"></path></g><g class="cls-14"><path class="cls-5" d="m266.01,704.18v18.83c0,.48.75.48.75,0v-18.83c0-.48-.75-.48-.75,0h0Z"></path></g><g class="cls-14"><path class="cls-5" d="m275.84,704.18v18.83c0,.48.75.48.75,0v-18.83c0-.48-.75-.48-.75,0h0Z"></path></g><g class="cls-14"><path class="cls-5" d="m285.68,704.18v18.83c0,.48.75.48.75,0v-18.83c0-.48-.75-.48-.75,0h0Z"></path></g><g class="cls-14"><path class="cls-5" d="m295.51,704.18v18.83c0,.48.75.48.75,0v-18.83c0-.48-.75-.48-.75,0h0Z"></path></g></g><rect class="cls-23" x="186.27" y="661.37" width="120.75" height="21.02"></rect><rect class="cls-16" x="186.27" y="661.37" width="120.75" height="21.02"></rect><g><g class="cls-14"><path class="cls-5" d="m197.02,662.46v18.83c0,.48.75.48.75,0v-18.83c0-.48-.75-.48-.75,0h0Z"></path></g><g class="cls-14"><path class="cls-5" d="m207,662.46v18.83c0,.48.75.48.75,0v-18.83c0-.48-.75-.48-.75,0h0Z"></path></g><g class="cls-14"><path class="cls-5" d="m216.84,662.46v18.83c0,.48.75.48.75,0v-18.83c0-.48-.75-.48-.75,0h0Z"></path></g><g class="cls-14"><path class="cls-5" d="m226.67,662.46v18.83c0,.48.75.48.75,0v-18.83c0-.48-.75-.48-.75,0h0Z"></path></g><g class="cls-14"><path class="cls-5" d="m236.5,662.46v18.83c0,.48.75.48.75,0v-18.83c0-.48-.75-.48-.75,0h0Z"></path></g><g class="cls-14"><path class="cls-5" d="m246.34,662.46v18.83c0,.48.75.48.75,0v-18.83c0-.48-.75-.48-.75,0h0Z"></path></g><g class="cls-14"><path class="cls-5" d="m256.17,662.46v18.83c0,.48.75.48.75,0v-18.83c0-.48-.75-.48-.75,0h0Z"></path></g><g class="cls-14"><path class="cls-5" d="m266.01,662.46v18.83c0,.48.75.48.75,0v-18.83c0-.48-.75-.48-.75,0h0Z"></path></g><g class="cls-14"><path class="cls-5" d="m275.84,662.46v18.83c0,.48.75.48.75,0v-18.83c0-.48-.75-.48-.75,0h0Z"></path></g><g class="cls-14"><path class="cls-5" d="m285.68,662.46v18.83c0,.48.75.48.75,0v-18.83c0-.48-.75-.48-.75,0h0Z"></path></g><g class="cls-14"><path class="cls-5" d="m295.51,662.46v18.83c0,.48.75.48.75,0v-18.83c0-.48-.75-.48-.75,0h0Z"></path></g></g><g><g class="cls-14"><path class="cls-5" d="m186.23,725.03v18.83c0,.48.75.48.75,0v-18.83c0-.48-.75-.48-.75,0h0Z"></path></g><g class="cls-14"><path class="cls-5" d="m196.21,725.03v18.83c0,.48.75.48.75,0v-18.83c0-.48-.75-.48-.75,0h0Z"></path></g><g class="cls-14"><path class="cls-5" d="m206.05,725.03v18.83c0,.48.75.48.75,0v-18.83c0-.48-.75-.48-.75,0h0Z"></path></g><g class="cls-14"><path class="cls-5" d="m215.88,725.03v18.83c0,.48.75.48.75,0v-18.83c0-.48-.75-.48-.75,0h0Z"></path></g><g class="cls-14"><path class="cls-5" d="m225.72,725.03v18.83c0,.48.75.48.75,0v-18.83c0-.48-.75-.48-.75,0h0Z"></path></g><g class="cls-14"><path class="cls-5" d="m235.55,725.03v18.83c0,.48.75.48.75,0v-18.83c0-.48-.75-.48-.75,0h0Z"></path></g><g class="cls-14"><path class="cls-5" d="m245.39,725.03v18.83c0,.48.75.48.75,0v-18.83c0-.48-.75-.48-.75,0h0Z"></path></g><g class="cls-14"><path class="cls-5" d="m255.22,725.03v18.83c0,.48.75.48.75,0v-18.83c0-.48-.75-.48-.75,0h0Z"></path></g><g class="cls-14"><path class="cls-5" d="m265.06,725.03v18.83c0,.48.75.48.75,0v-18.83c0-.48-.75-.48-.75,0h0Z"></path></g><g class="cls-14"><path class="cls-5" d="m274.89,725.03v18.83c0,.48.75.48.75,0v-18.83c0-.48-.75-.48-.75,0h0Z"></path></g><g class="cls-14"><path class="cls-5" d="m284.73,725.03v18.83c0,.48.75.48.75,0v-18.83c0-.48-.75-.48-.75,0h0Z"></path></g></g></g><g><g class="cls-14"><polygon points="299.59 682.69 178.84 682.69 178.84 703.71 186.27 703.71 186.27 723.56 177.03 723.56 177.03 744.59 297.78 744.59 297.78 724.11 307.02 724.11 307.02 703.09 299.59 703.09 299.59 682.69"></polygon></g><g class="cls-16"><rect x="186.27" y="661.37" width="120.75" height="21.02"></rect></g></g></g><g><g><rect class="cls-23" x="103.9" y="682.99" width="120.75" height="21.02"></rect><g><g class="cls-14"><path class="cls-5" d="m114.09,684.14v18.83c0,.48.75.48.75,0v-18.83c0-.48-.75-.48-.75,0h0Z"></path></g><g class="cls-14"><path class="cls-5" d="m124.07,684.14v18.83c0,.48.75.48.75,0v-18.83c0-.48-.75-.48-.75,0h0Z"></path></g><g class="cls-14"><path class="cls-5" d="m133.91,684.14v18.83c0,.48.75.48.75,0v-18.83c0-.48-.75-.48-.75,0h0Z"></path></g><g class="cls-14"><path class="cls-5" d="m143.74,684.14v18.83c0,.48.75.48.75,0v-18.83c0-.48-.75-.48-.75,0h0Z"></path></g><g class="cls-14"><path class="cls-5" d="m153.58,684.14v18.83c0,.48.75.48.75,0v-18.83c0-.48-.75-.48-.75,0h0Z"></path></g><g class="cls-14"><path class="cls-5" d="m163.41,684.14v18.83c0,.48.75.48.75,0v-18.83c0-.48-.75-.48-.75,0h0Z"></path></g><g class="cls-14"><path class="cls-5" d="m173.25,684.14v18.83c0,.48.75.48.75,0v-18.83c0-.48-.75-.48-.75,0h0Z"></path></g><g class="cls-14"><path class="cls-5" d="m183.08,684.14v18.83c0,.48.75.48.75,0v-18.83c0-.48-.75-.48-.75,0h0Z"></path></g><g class="cls-14"><path class="cls-5" d="m192.92,684.14v18.83c0,.48.75.48.75,0v-18.83c0-.48-.75-.48-.75,0h0Z"></path></g><g class="cls-14"><path class="cls-5" d="m202.75,684.14v18.83c0,.48.75.48.75,0v-18.83c0-.48-.75-.48-.75,0h0Z"></path></g><g class="cls-14"><path class="cls-5" d="m212.59,684.14v18.83c0,.48.75.48.75,0v-18.83c0-.48-.75-.48-.75,0h0Z"></path></g></g><rect class="cls-23" x="102.1" y="723.87" width="120.75" height="21.02"></rect><rect class="cls-23" x="111.33" y="703.39" width="120.75" height="21.02"></rect><rect class="cls-16" x="111.33" y="703.39" width="120.75" height="21.02"></rect><g><g class="cls-14"><path class="cls-5" d="m122.08,704.48v18.83c0,.48.75.48.75,0v-18.83c0-.48-.75-.48-.75,0h0Z"></path></g><g class="cls-14"><path class="cls-5" d="m132.07,704.48v18.83c0,.48.75.48.75,0v-18.83c0-.48-.75-.48-.75,0h0Z"></path></g><g class="cls-14"><path class="cls-5" d="m141.9,704.48v18.83c0,.48.75.48.75,0v-18.83c0-.48-.75-.48-.75,0h0Z"></path></g><g class="cls-14"><path class="cls-5" d="m151.74,704.48v18.83c0,.48.75.48.75,0v-18.83c0-.48-.75-.48-.75,0h0Z"></path></g><g class="cls-14"><path class="cls-5" d="m161.57,704.48v18.83c0,.48.75.48.75,0v-18.83c0-.48-.75-.48-.75,0h0Z"></path></g><g class="cls-14"><path class="cls-5" d="m171.41,704.48v18.83c0,.48.75.48.75,0v-18.83c0-.48-.75-.48-.75,0h0Z"></path></g><g class="cls-14"><path class="cls-5" d="m181.24,704.48v18.83c0,.48.75.48.75,0v-18.83c0-.48-.75-.48-.75,0h0Z"></path></g><g class="cls-14"><path class="cls-5" d="m191.07,704.48v18.83c0,.48.75.48.75,0v-18.83c0-.48-.75-.48-.75,0h0Z"></path></g><g class="cls-14"><path class="cls-5" d="m200.91,704.48v18.83c0,.48.75.48.75,0v-18.83c0-.48-.75-.48-.75,0h0Z"></path></g><g class="cls-14"><path class="cls-5" d="m210.74,704.48v18.83c0,.48.75.48.75,0v-18.83c0-.48-.75-.48-.75,0h0Z"></path></g><g class="cls-14"><path class="cls-5" d="m220.58,704.48v18.83c0,.48.75.48.75,0v-18.83c0-.48-.75-.48-.75,0h0Z"></path></g></g><rect class="cls-23" x="111.33" y="661.67" width="120.75" height="21.02"></rect><rect class="cls-16" x="111.33" y="661.67" width="120.75" height="21.02"></rect><g><g class="cls-14"><path class="cls-5" d="m122.08,662.77v18.83c0,.48.75.48.75,0v-18.83c0-.48-.75-.48-.75,0h0Z"></path></g><g class="cls-14"><path class="cls-5" d="m132.07,662.77v18.83c0,.48.75.48.75,0v-18.83c0-.48-.75-.48-.75,0h0Z"></path></g><g class="cls-14"><path class="cls-5" d="m141.9,662.77v18.83c0,.48.75.48.75,0v-18.83c0-.48-.75-.48-.75,0h0Z"></path></g><g class="cls-14"><path class="cls-5" d="m151.74,662.77v18.83c0,.48.75.48.75,0v-18.83c0-.48-.75-.48-.75,0h0Z"></path></g><g class="cls-14"><path class="cls-5" d="m161.57,662.77v18.83c0,.48.75.48.75,0v-18.83c0-.48-.75-.48-.75,0h0Z"></path></g><g class="cls-14"><path class="cls-5" d="m171.41,662.77v18.83c0,.48.75.48.75,0v-18.83c0-.48-.75-.48-.75,0h0Z"></path></g><g class="cls-14"><path class="cls-5" d="m181.24,662.77v18.83c0,.48.75.48.75,0v-18.83c0-.48-.75-.48-.75,0h0Z"></path></g><g class="cls-14"><path class="cls-5" d="m191.07,662.77v18.83c0,.48.75.48.75,0v-18.83c0-.48-.75-.48-.75,0h0Z"></path></g><g class="cls-14"><path class="cls-5" d="m200.91,662.77v18.83c0,.48.75.48.75,0v-18.83c0-.48-.75-.48-.75,0h0Z"></path></g><g class="cls-14"><path class="cls-5" d="m210.74,662.77v18.83c0,.48.75.48.75,0v-18.83c0-.48-.75-.48-.75,0h0Z"></path></g><g class="cls-14"><path class="cls-5" d="m220.58,662.77v18.83c0,.48.75.48.75,0v-18.83c0-.48-.75-.48-.75,0h0Z"></path></g></g><g><g class="cls-14"><path class="cls-5" d="m111.3,725.33v18.83c0,.48.75.48.75,0v-18.83c0-.48-.75-.48-.75,0h0Z"></path></g><g class="cls-14"><path class="cls-5" d="m121.28,725.33v18.83c0,.48.75.48.75,0v-18.83c0-.48-.75-.48-.75,0h0Z"></path></g><g class="cls-14"><path class="cls-5" d="m131.11,725.33v18.83c0,.48.75.48.75,0v-18.83c0-.48-.75-.48-.75,0h0Z"></path></g><g class="cls-14"><path class="cls-5" d="m140.95,725.33v18.83c0,.48.75.48.75,0v-18.83c0-.48-.75-.48-.75,0h0Z"></path></g><g class="cls-14"><path class="cls-5" d="m150.78,725.33v18.83c0,.48.75.48.75,0v-18.83c0-.48-.75-.48-.75,0h0Z"></path></g><g class="cls-14"><path class="cls-5" d="m160.62,725.33v18.83c0,.48.75.48.75,0v-18.83c0-.48-.75-.48-.75,0h0Z"></path></g><g class="cls-14"><path class="cls-5" d="m170.45,725.33v18.83c0,.48.75.48.75,0v-18.83c0-.48-.75-.48-.75,0h0Z"></path></g><g class="cls-14"><path class="cls-5" d="m180.29,725.33v18.83c0,.48.75.48.75,0v-18.83c0-.48-.75-.48-.75,0h0Z"></path></g><g class="cls-14"><path class="cls-5" d="m190.12,725.33v18.83c0,.48.75.48.75,0v-18.83c0-.48-.75-.48-.75,0h0Z"></path></g><g class="cls-14"><path class="cls-5" d="m199.96,725.33v18.83c0,.48.75.48.75,0v-18.83c0-.48-.75-.48-.75,0h0Z"></path></g><g class="cls-14"><path class="cls-5" d="m209.79,725.33v18.83c0,.48.75.48.75,0v-18.83c0-.48-.75-.48-.75,0h0Z"></path></g></g></g><g><rect class="cls-23" x="103.9" y="600.62" width="120.75" height="21.02"></rect><g><g class="cls-14"><path class="cls-5" d="m114.09,601.77v18.83c0,.48.75.48.75,0v-18.83c0-.48-.75-.48-.75,0h0Z"></path></g><g class="cls-14"><path class="cls-5" d="m124.07,601.77v18.83c0,.48.75.48.75,0v-18.83c0-.48-.75-.48-.75,0h0Z"></path></g><g class="cls-14"><path class="cls-5" d="m133.91,601.77v18.83c0,.48.75.48.75,0v-18.83c0-.48-.75-.48-.75,0h0Z"></path></g><g class="cls-14"><path class="cls-5" d="m143.74,601.77v18.83c0,.48.75.48.75,0v-18.83c0-.48-.75-.48-.75,0h0Z"></path></g><g class="cls-14"><path class="cls-5" d="m153.58,601.77v18.83c0,.48.75.48.75,0v-18.83c0-.48-.75-.48-.75,0h0Z"></path></g><g class="cls-14"><path class="cls-5" d="m163.41,601.77v18.83c0,.48.75.48.75,0v-18.83c0-.48-.75-.48-.75,0h0Z"></path></g><g class="cls-14"><path class="cls-5" d="m173.25,601.77v18.83c0,.48.75.48.75,0v-18.83c0-.48-.75-.48-.75,0h0Z"></path></g><g class="cls-14"><path class="cls-5" d="m183.08,601.77v18.83c0,.48.75.48.75,0v-18.83c0-.48-.75-.48-.75,0h0Z"></path></g><g class="cls-14"><path class="cls-5" d="m192.92,601.77v18.83c0,.48.75.48.75,0v-18.83c0-.48-.75-.48-.75,0h0Z"></path></g><g class="cls-14"><path class="cls-5" d="m202.75,601.77v18.83c0,.48.75.48.75,0v-18.83c0-.48-.75-.48-.75,0h0Z"></path></g><g class="cls-14"><path class="cls-5" d="m212.59,601.77v18.83c0,.48.75.48.75,0v-18.83c0-.48-.75-.48-.75,0h0Z"></path></g></g><rect class="cls-23" x="102.1" y="641.5" width="120.75" height="21.02"></rect><rect class="cls-23" x="111.33" y="621.02" width="120.75" height="21.02"></rect><rect class="cls-16" x="111.33" y="621.02" width="120.75" height="21.02"></rect><g><g class="cls-14"><path class="cls-5" d="m122.08,622.11v18.83c0,.48.75.48.75,0v-18.83c0-.48-.75-.48-.75,0h0Z"></path></g><g class="cls-14"><path class="cls-5" d="m132.07,622.11v18.83c0,.48.75.48.75,0v-18.83c0-.48-.75-.48-.75,0h0Z"></path></g><g class="cls-14"><path class="cls-5" d="m141.9,622.11v18.83c0,.48.75.48.75,0v-18.83c0-.48-.75-.48-.75,0h0Z"></path></g><g class="cls-14"><path class="cls-5" d="m151.74,622.11v18.83c0,.48.75.48.75,0v-18.83c0-.48-.75-.48-.75,0h0Z"></path></g><g class="cls-14"><path class="cls-5" d="m161.57,622.11v18.83c0,.48.75.48.75,0v-18.83c0-.48-.75-.48-.75,0h0Z"></path></g><g class="cls-14"><path class="cls-5" d="m171.41,622.11v18.83c0,.48.75.48.75,0v-18.83c0-.48-.75-.48-.75,0h0Z"></path></g><g class="cls-14"><path class="cls-5" d="m181.24,622.11v18.83c0,.48.75.48.75,0v-18.83c0-.48-.75-.48-.75,0h0Z"></path></g><g class="cls-14"><path class="cls-5" d="m191.07,622.11v18.83c0,.48.75.48.75,0v-18.83c0-.48-.75-.48-.75,0h0Z"></path></g><g class="cls-14"><path class="cls-5" d="m200.91,622.11v18.83c0,.48.75.48.75,0v-18.83c0-.48-.75-.48-.75,0h0Z"></path></g><g class="cls-14"><path class="cls-5" d="m210.74,622.11v18.83c0,.48.75.48.75,0v-18.83c0-.48-.75-.48-.75,0h0Z"></path></g><g class="cls-14"><path class="cls-5" d="m220.58,622.11v18.83c0,.48.75.48.75,0v-18.83c0-.48-.75-.48-.75,0h0Z"></path></g></g><g><g class="cls-14"><path class="cls-5" d="m111.3,642.96v18.83c0,.48.75.48.75,0v-18.83c0-.48-.75-.48-.75,0h0Z"></path></g><g class="cls-14"><path class="cls-5" d="m121.28,642.96v18.83c0,.48.75.48.75,0v-18.83c0-.48-.75-.48-.75,0h0Z"></path></g><g class="cls-14"><path class="cls-5" d="m131.11,642.96v18.83c0,.48.75.48.75,0v-18.83c0-.48-.75-.48-.75,0h0Z"></path></g><g class="cls-14"><path class="cls-5" d="m140.95,642.96v18.83c0,.48.75.48.75,0v-18.83c0-.48-.75-.48-.75,0h0Z"></path></g><g class="cls-14"><path class="cls-5" d="m150.78,642.96v18.83c0,.48.75.48.75,0v-18.83c0-.48-.75-.48-.75,0h0Z"></path></g><g class="cls-14"><path class="cls-5" d="m160.62,642.96v18.83c0,.48.75.48.75,0v-18.83c0-.48-.75-.48-.75,0h0Z"></path></g><g class="cls-14"><path class="cls-5" d="m170.45,642.96v18.83c0,.48.75.48.75,0v-18.83c0-.48-.75-.48-.75,0h0Z"></path></g><g class="cls-14"><path class="cls-5" d="m180.29,642.96v18.83c0,.48.75.48.75,0v-18.83c0-.48-.75-.48-.75,0h0Z"></path></g><g class="cls-14"><path class="cls-5" d="m190.12,642.96v18.83c0,.48.75.48.75,0v-18.83c0-.48-.75-.48-.75,0h0Z"></path></g><g class="cls-14"><path class="cls-5" d="m199.96,642.96v18.83c0,.48.75.48.75,0v-18.83c0-.48-.75-.48-.75,0h0Z"></path></g><g class="cls-14"><path class="cls-5" d="m209.79,642.96v18.83c0,.48.75.48.75,0v-18.83c0-.48-.75-.48-.75,0h0Z"></path></g></g></g></g></g><g><path class="cls-22" d="m210.38,421.11c.76.25,29.04,48.03,30.82,48.03s28.52-10.69,28.52-10.69l5.35,12.73s-34.35,20.7-47.99,19.14-36.29-56.31-36.29-56.31l19.59-12.89Z"></path><g><path class="cls-22" d="m269.18,458.36l15.48-10.57,3.84,23.43s-15.2,6.06-19.24-1.76l-.08-11.1Z"></path><polygon class="cls-22" points="300.03 448.75 302.29 468.25 288.51 471.22 284.66 447.77 300.03 448.75"></polygon></g><polygon class="cls-22" points="351.16 738.9 369.14 729.52 356.99 686.32 339.01 695.72 351.16 738.9"></polygon><path class="cls-5" d="m369.74,726.71l-21.85,6.37c-.76.19-1.23.95-1.04,1.72,0,0,0,.01,0,.02h0l3.96,17.62c.56,1.88,2.52,2.97,4.41,2.45,7.58-2.34,11.09-3.84,20.58-6.73,5.91-1.75,17.72-4.59,25.41-8.24,7.69-3.65,3.9-11.14.31-10.28-8.48,2.02-21.45-.08-28.18-2.81-1.16-.42-2.42-.45-3.6-.1Z"></path><g><polygon class="cls-22" points="411.89 656.47 421.42 640.47 392.52 613.47 383.01 629.45 411.89 656.47"></polygon><path class="cls-23" d="m423.23,638.4h.14s.02-.1,0-.14c1.38-.91,2.65-1.98,3.79-3.19.93-.83,1.52-1.97,1.65-3.21-.05-.9-.61-1.68-1.44-2.02-.49-.27-1.09-.27-1.58,0-1.34,1.21-2.21,2.86-2.44,4.65-.2-1.59-.97-3.06-2.16-4.14-.65-.39-1.47-.28-2,.26-.5.42-.78,1.04-.77,1.7.19,2.58,4.44,5.7,4.65,5.86l.16-.28h0l-.14.3c.12.02,0,.3,0,.3.05-.02.1-.05.14-.09Zm-.3-1.58v.44c-1.35-1.16-3.49-3.26-3.49-4.79-.02-.35.1-.69.33-.95l.16-.14c.46-.42.81-.33,1.02-.19,1.29,1.59,1.99,3.58,1.98,5.63Zm.95.42c.44-2.53,1.35-5.86,2.51-6.46.25-.13.54-.13.79,0,.51.24.86.72.93,1.28.05,1.23-1.56,3.12-4.23,5.19Z"></path><path class="cls-5" d="m420.54,637.98l-13.95,15.51c-.51.52-.51,1.34,0,1.86h0l11.63,11.84c1.34,1.22,3.42,1.13,4.65-.21,4.79-5.49,6.81-8.35,12.93-15.21,3.77-4.19,11.63-12.14,15.86-18.6,4.23-6.46-2.33-10.58-4.65-8.19-5.67,5.67-16.81,10.25-23.25,11.39-1.23.14-2.36.71-3.21,1.6Z"></path><path class="cls-23" d="m215.1,419.07l-17.42,12.74-13,9.53-1.88-2.33-4.79-5.93-9.3-11.35,10.77-42.4c10.33.47,27.36,27.2,33.02,35.78,1.65,2.44,2.6,3.95,2.6,3.95Z"></path><path class="cls-17" d="m197.68,431.81l-13,9.53-6.67-8.26c1.56-13.16,3.19-26.6,3.19-26.6,7.17,7.23,12.78,15.85,16.49,25.32Z"></path><path class="cls-5" d="m371.39,714.67s-38.62-139.89-45.02-147.94c-10.37-13.14-110.36-27.02-110.36-27.02l-26.16-45.23-94.46,13.23s6.98,66.44,18.6,83.55c11.63,17.11,163.82,14.25,173.94,17.58,10.12,3.33,48.39,112.53,48.39,112.53l35.07-6.7Z"></path><path class="cls-12" d="m371.39,714.65l-35.23,6.7s-38.25-109.18-48.39-112.5c-10.14-3.33-162.38-.46-173.94-17.58-11.56-17.11-18.6-83.55-18.6-83.55l94.46-13.23,7.72,13.37,4.33,7.46,14.28,24.39s99.99,13.95,110.46,27.02c6.3,8.02,44.93,147.92,44.93,147.92Z"></path><polygon class="cls-17" points="197.4 507.85 201.8 515.29 129.72 537.35 197.4 507.85"></polygon><path class="cls-5" d="m145.06,533.43s109.66-42.02,139.52-30.37c29.86,11.65,124.27,116.99,124.27,116.99l-21.35,27.02s-95.62-90.85-106.8-96.04c-11.18-5.19-123.48,51.16-123.48,51.16l-12.16-68.76Z"></path><path class="cls-12" d="m145.06,533.43s109.66-42.02,139.52-30.37c29.86,11.65,124.27,116.99,124.27,116.99l-21.35,27.02s-95.62-90.85-106.8-96.04c-11.18-5.19-123.48,51.16-123.48,51.16l-12.16-68.76Z"></path><path class="cls-17" d="m167.96,596.96s97.67-49.18,115.45-55.81c17.79-6.63,55.81,14.49,62.44,66.72l-7.84-8.56s-7.8-31.34-18.79-40.83c-7.6-6.56-42.22-2.7-42.22-2.7,8.23-4.07-71.52,35.86-109.04,41.18Z"></path><path class="cls-23" d="m198.86,511.76c-31.5,14.58-65.24,26.3-103.63,20.04,0,0-1.26-35.88-2.72-55.76h0c-.93-12.7-1.86-27.58-2.33-42.32-.74-22.32,6.05-45.36,8.68-58.71,19.88-5.28,35.68-3.44,54.55-1.72,11.86,4.27,18.1,2.44,30.24,7.66,0,0,8.25,64.59,15.2,130.81Z"></path><path class="cls-22" d="m194.78,470.64l17.79-5.91-2.74,23.58s-16.28,1.65-18.02-6.98l2.98-10.7Z"></path><polygon class="cls-22" points="227.08 469.88 223.89 489.25 209.82 488.32 212.57 464.71 227.08 469.88"></polygon><path class="cls-17" d="m92.51,475.3c-.93-12.7-1.86-27.58-2.33-42.32,8.39-15.49,21.56-33.82,21.56-33.82,0,0,34.22,37.38-19.24,76.14Z"></path><path class="cls-22" d="m82.51,421.81c4.84,22.3,15.42,59.34,36.18,71.6,1.93,1,4,1.69,6.14,2.05,7.17.71,14.41.5,21.53-.63,18.73-2.53,37.25-6.42,55.41-11.63l-2.33-12.93-36.74,2.02c-9.7.54-26.63,1.21-32.79.16l.74.4c-.33-.3-1-.91-1.3-1.26-5.19-6.12-8.19-13.79-11.21-21.72-3.87-10.94-7.14-22.08-9.79-33.37l-25.86,5.3Z"></path><path class="cls-23" d="m118.74,434.62l-37.72,8.84-1.05-4.51c-6.58-30.23,2.56-60.66,18.89-63.94,0,0,4.81,5.92,9.9,15.88,3.98,7.67,7.79,29.74,9.3,39.25.42,2.77.67,4.49.67,4.49Z"></path><path class="cls-22" d="m130.6,328.17h0v8.42h0c-.53,13.77-3.83,29.4-12.74,35.43,6.85,10.04,18.49,16.05,28.84,16.45,8.91.16,9.22-10.11,7.33-14.97-4.3-1.44-4.02-1.31-4.02-1.31-2.33-5.53-.44-12.12,2.33-18.3l-21.74-25.72Z"></path><path class="cls-17" d="m130.6,328.17h0c-.16,2.8-.16,5.61,0,8.42h0c.54,11.16,3.88,29.93,19.51,35.6-2.33-5.53-.44-12.12,2.33-18.3l-21.84-25.72Z"></path><g><path class="cls-22" d="m129.63,316.87c.45-18.14,19.32-30.23,36.11-21.66,17.04,8.7,17.19,35.7,11.91,51.57-5.86,17.64-28.84,23.98-41.35,8.86-8.31-10.05-7.13-20.64-6.68-38.78h0Z"></path><path class="cls-5" d="m144.41,286.59c-15.48-2.77-18.97,6.64-21.72,16.81-3.52,1.84-4.17,5.35-1.04,11.05.07.69.21,1.42.42,2.18,1.03,3.79,5.11,12.6,8.71,20.05-.22-.97-.37-2-.48-3.12-.36-3.73-.67-8.87-.8-15.01,1.38.39,2.28,1.02,3.07,1.73,5.76,5.17,7.35,9.07,10.95,6.52,2.19-1.55,1.62-8.35,1.56-14.04,0-1.49.09-4.82.82-7.93.98-4.16,5.98-6.52,5.98-6.52,0,0,.31-.23.67-.61,4.77,5.07,17.08,15.08,28.15,12.68,16.55-3.58-17.54-36.56-36.29-23.79Z"></path><path class="cls-22" d="m121.72,328.16c.73,5.01,3.72,9.19,7.11,11.6,5.1,3.62,8.12-2.1,8.51-8.03.36-5.33-.17-11.98-6.16-13.25-5.9-1.25-10.3,3.95-9.46,9.68Z"></path><path class="cls-5" d="m157.35,326.03c-.41,2.11.25,3.92,1.47,4.05,1.22.13,2.55-1.48,2.96-3.59.41-2.11-.25-3.92-1.47-4.05-1.22-.13-2.55,1.48-2.96,3.59Z"></path><path class="cls-5" d="m174.36,329.07c-.41,2.11.25,3.92,1.47,4.05,1.22.13,2.55-1.48,2.96-3.59.41-2.11-.25-3.92-1.47-4.05-1.22-.13-2.55,1.48-2.96,3.59Z"></path><path class="cls-21" d="m166.58,326.59s4.36,10.01,5.64,14.01c-2.91,1.9-7.13.15-7.13.15l1.5-14.15Z"></path><path class="cls-5" d="m154.32,316.96c.26.16.59.17.88.02,3.32-1.84,6-.57,6.28-.43.42.22.95.06,1.18-.36.22-.42.06-.94-.36-1.17-.15-.08-3.72-1.89-7.94.45-.42.23-.57.76-.34,1.18.08.14.18.24.31.32Z"></path><path class="cls-5" d="m155.5,344.54c-.04-.3-.23-.57-.53-.7-3.49-1.48-4.14-4.38-4.2-4.68-.09-.47-.54-.79-1.01-.7-.47.08-.78.53-.7,1,.03.17.81,4.09,5.24,5.98.44.19.95-.02,1.13-.46.06-.14.08-.29.06-.43Z"></path><path class="cls-18" d="m126.76,323.7c.92-.99,2.51-1.16,3.76-.63,1.25.52,2.18,1.62,2.8,2.82.75,1.44,1.11,3.08,1.04,4.7"></path><path class="cls-5" d="m181.52,322.08c.16,0,.33-.07.47-.17.39-.29.47-.83.18-1.22-2.84-3.85-6.82-3.6-7-3.61-.48.03-.84.45-.82.92.03.48.43.84.91.81.17-.02,3.23-.17,5.52,2.92.18.24.46.36.74.35Z"></path></g><g><path class="cls-5" d="m164.42,334.55h-.33l-10.74-2.16c-.42-.1-.79-.35-1.05-.7-.24-.36-.32-.81-.23-1.23l1.19-5.91s0-.01,0-.02c.18-.88,1.05-1.44,1.93-1.26l10.72,2.16c.89.18,1.47,1.04,1.3,1.93l-1.19,5.88c-.09.43-.35.81-.72,1.05-.26.18-.57.28-.88.28v-.02Zm-.21-.58-9.35-9.53c-.19,0-.37.1-.44.28l-1.19,5.91c-.04.11-.04.24,0,.35.07.11.18.18.3.21l10.72,2.16c.12.05.25.05.37,0,.09-.08.16-.19.19-.3l1.21-5.91c.04-.26-.12-.5-.37-.56l-10.74-2.16h0l-.05.02Z"></path><path class="cls-5" d="m181.63,338.06h0l-10.72-2.14s-.01,0-.02,0c-.88-.18-1.44-1.05-1.26-1.93l1.19-5.91s0-.01,0-.02c.18-.88,1.05-1.44,1.93-1.26l10.72,2.16s.01,0,.02,0c.88.18,1.44,1.05,1.26,1.93l-1.19,5.88c-.15.77-.82,1.33-1.6,1.33l-.33-.05Zm-9.21-10.14c-.25-.04-.49.12-.53.37l-1.19,5.91c-.04.26.12.5.37.56l10.72,2.14s.01,0,.02,0c.25.05.49-.12.54-.38l1.19-5.88c.04-.26-.12-.5-.37-.56l-10.72-2.16h-.02Z"></path><path class="cls-5" d="m171.07,330.29c.15,0,.29-.06.4-.16.22-.23.22-.59,0-.81-1.42-1.4-3.53-1.83-5.39-1.12-.3.12-.45.45-.33.75,0,0,0,.01,0,.02.1.29.42.44.71.34.01,0,.02,0,.03-.01,1.41-.55,3.02-.23,4.12.81.12.13.29.2.47.19Z"></path><path class="cls-5" d="m153.69,326.5c.22,0,.41-.2.45-.47.06-.31-.1-.62-.35-.7,0,0,0,0,0,0l-16.44-4.65c-.25-.07-.51.12-.57.44,0,0,0,0,0,0-.06.31.1.62.35.7,0,0,0,0,0,0l16.44,4.65.11.02Z"></path></g><polygon class="cls-5" points="139.78 498.23 189.75 515.84 249.1 489.25 139.78 494.48 139.78 498.23"></polygon><path class="cls-5" d="m196.3,515.84h102.43c2.64,0,4.91-1.88,5.41-4.47l14.99-78.33c.65-3.4-1.95-6.54-5.41-6.54h-103.87c-2.68,0-4.97,1.93-5.43,4.57l-13.55,78.33c-.58,3.37,2.01,6.45,5.43,6.45Z"></path><path class="cls-17" d="m139.78,494.48c1.26-.06,50.37,16.46,50.37,16.46l1.75-18.96-52.12,2.49Z"></path></g><path class="cls-23" d="m116.69,372.19s7.87-8.12,7.83-8.05c-.04.07,20.49,13.51,21.62,12.38,1.12-1.12,2.91-7.32,2.91-7.32,0,0,6.99,4.75,8.11,7.38,1.12,2.63-1.4,16.49-8.11,17.69-17.52,3.15-32.36-22.1-32.36-22.1Z"></path><g class="cls-14"><path d="m117.25,373.29c3.2,2.5,6.39,5,9.59,7.5,2.16,1.69,4.21,3.64,6.62,4.97,1.54.85,3.58,1.54,5.04.17.97-.91,1.76-2.14,2.57-3.18,1.09-1.39,1.87-3,2.87-4.46.27-.4-.38-.78-.65-.38-1.65,2.41-3.04,4.95-5,7.15-1.71,1.91-4.23.3-5.92-.87-2.14-1.49-4.13-3.24-6.18-4.85-2.81-2.19-5.61-4.39-8.42-6.58-.38-.29-.91.23-.53.53h0Z"></path></g><g class="cls-14"><path d="m145.65,378.44l4.32,4.57c.66.7,1.29,1.49,2.04,2.09.53.43,1.22.7,1.88.39,1.35-.63,1.22-2.75,1.28-3.96.1-2.08.06-4.17-.09-6.25-.04-.48-.79-.48-.75,0,.14,1.82.18,3.64.12,5.47-.03.82-.05,1.65-.14,2.46-.06.52-.18,1.31-.7,1.59-.7.37-1.41-.52-1.83-.96l-1.82-1.93-3.78-4c-.33-.35-.86.18-.53.53h0Z"></path></g></g></g></g><rect class="cls-5" x="547.04" y="361.2" width="181.75" height="345.47" rx="10.4" ry="10.4"></rect><path class="cls-23" d="m722.72,372.15v322.98c0,2.5-2.01,4.45-4.52,4.45h-160.93c-2.3,0-4.03-1.78-4.03-4.08v-323.71c0-1.99,1.46-3.74,3.46-3.74h40.23c1.14,0,2.17.74,2.59,1.81l1.67,4.1c.42,1.06,1.45,1.79,2.59,1.79h68.5c1.14,0,2.17-.7,2.59-1.76l1.67-4.12c.42-1.07,1.45-1.82,2.59-1.82h39.66c2.2,0,3.95,1.91,3.95,4.1Z"></path><rect class="cls-2" x="553.23" y="381.49" width="169.49" height="304.75"></rect><circle class="cls-13" cx="634.13" cy="368.45" r="2.33"></circle><path class="cls-13" d="m641.17,368.45c0,.82-.67,1.49-1.49,1.49s-1.49-.67-1.49-1.49.67-1.49,1.49-1.49,1.49.67,1.49,1.49Z"></path><g><rect class="cls-13" x="572.35" y="374.25" width="2.09" height="2.79" transform="translate(1146.79 751.29) rotate(180)"></rect><rect class="cls-13" x="568.93" y="373.32" width="2.09" height="3.72" transform="translate(1139.96 750.36) rotate(180)"></rect><rect class="cls-13" x="565.52" y="372.39" width="2.09" height="4.65" transform="translate(1133.14 749.42) rotate(180)"></rect><rect class="cls-13" x="562.11" y="371.45" width="2.09" height="5.58" transform="translate(1126.32 748.49) rotate(180)"></rect></g><g><rect class="cls-13" x="702.73" y="373.23" width="1.24" height="2.79"></rect><rect class="cls-13" x="704.83" y="372.21" width="9.89" height="4.83" transform="translate(1419.54 749.25) rotate(180)"></rect></g><rect class="cls-5" x="553.02" y="381.52" width="169.79" height="27.51"></rect><g><g class="cls-1"><path class="cls-6" d="m564.54,400.39c-.28,0-.56-.11-.77-.32l-4.1-4.1c-.43-.43-.43-1.12,0-1.54l4.1-4.1c.43-.43,1.12-.43,1.54,0,.43.43.43,1.12,0,1.54l-3.33,3.33,3.33,3.33c.43.43.43,1.12,0,1.54-.21.21-.49.32-.77.32Z"></path></g><g class="cls-1"><path class="cls-6" d="m716.48,391.21c0,.69-.56,1.24-1.24,1.24s-1.24-.56-1.24-1.24.56-1.24,1.24-1.24,1.24.56,1.24,1.24Z"></path><path class="cls-6" d="m716.48,395.21c0,.69-.56,1.24-1.24,1.24s-1.24-.56-1.24-1.24.56-1.24,1.24-1.24,1.24.56,1.24,1.24Z"></path><path class="cls-6" d="m716.48,399.2c0,.69-.56,1.24-1.24,1.24s-1.24-.56-1.24-1.24.56-1.24,1.24-1.24,1.24.56,1.24,1.24Z"></path></g></g><g><path class="cls-23" d="m617.82,433.64v1.47h-1.07v-1.45c-1.28-.08-2.53-.5-3.21-1.09l.59-1.32c.64.52,1.62.9,2.62.99v-2.62c-1.45-.35-3.01-.83-3.01-2.64,0-1.34.97-2.5,3.01-2.7v-1.48h1.07v1.45c.97.05,1.95.34,2.66.8l-.54,1.32c-.69-.41-1.43-.63-2.12-.71v2.64c1.45.35,3.04.81,3.04,2.63,0,1.34-.98,2.49-3.04,2.7Zm-1.07-5.6v-2.33c-.93.14-1.32.62-1.32,1.19,0,.63.56.92,1.32,1.14Zm2.43,3.02c0-.64-.58-.94-1.36-1.17v2.32c.96-.14,1.36-.59,1.36-1.15Z"></path><path class="cls-23" d="m628.68,424.37v9.16h-1.7v-7.74h-1.94v-1.43h3.64Z"></path><path class="cls-23" d="m637.94,430.9c0,1.7-1.48,2.76-3.76,2.76s-3.73-1.06-3.73-2.76c0-1.01.52-1.75,1.47-2.19-.73-.41-1.14-1.06-1.14-1.92,0-1.57,1.37-2.55,3.4-2.55s3.43.98,3.43,2.55c0,.86-.42,1.52-1.17,1.92.96.43,1.49,1.18,1.49,2.19Zm-1.71-.05c0-.9-.79-1.47-2.04-1.47s-2.02.56-2.02,1.47.76,1.48,2.02,1.48,2.04-.55,2.04-1.48Zm-3.77-3.98c0,.79.65,1.28,1.73,1.28s1.75-.5,1.75-1.28c0-.83-.71-1.3-1.75-1.3s-1.73.47-1.73,1.3Z"></path><path class="cls-23" d="m639.12,432.54c0-.65.48-1.09,1.07-1.09s1.07.43,1.07,1.09-.48,1.09-1.07,1.09-1.07-.46-1.07-1.09Z"></path><path class="cls-23" d="m645.34,424.37v9.16h-1.7v-7.74h-1.94v-1.43h3.64Z"></path><path class="cls-23" d="m653.8,432.09v1.44h-6.76v-1.14l3.64-3.46c.89-.85,1.05-1.39,1.05-1.9,0-.84-.58-1.32-1.7-1.32-.89,0-1.64.3-2.15.96l-1.19-.92c.71-.96,1.98-1.52,3.48-1.52,1.99,0,3.27,1.01,3.27,2.63,0,.89-.25,1.7-1.52,2.89l-2.45,2.33h4.32Z"></path><path class="cls-23" d="m662.22,430.9c0,1.7-1.48,2.76-3.76,2.76s-3.73-1.06-3.73-2.76c0-1.01.52-1.75,1.47-2.19-.73-.41-1.14-1.06-1.14-1.92,0-1.57,1.37-2.55,3.4-2.55s3.43.98,3.43,2.55c0,.86-.42,1.52-1.17,1.92.96.43,1.49,1.18,1.49,2.19Zm-1.71-.05c0-.9-.79-1.47-2.04-1.47s-2.02.56-2.02,1.47.76,1.48,2.02,1.48,2.04-.55,2.04-1.48Zm-3.77-3.98c0,.79.65,1.28,1.73,1.28s1.75-.5,1.75-1.28c0-.83-.71-1.3-1.75-1.3s-1.73.47-1.73,1.3Z"></path></g><g><path d="m626.91,487.96v.81h-.6v-.81c-.71-.04-1.4-.28-1.78-.6l.33-.73c.36.29.9.5,1.45.55v-1.45c-.81-.2-1.67-.46-1.67-1.47,0-.74.54-1.39,1.67-1.5v-.82h.6v.81c.54.03,1.08.19,1.47.44l-.3.73c-.38-.22-.79-.35-1.18-.39v1.47c.81.2,1.68.45,1.68,1.46,0,.74-.54,1.38-1.68,1.5Zm-.6-3.11v-1.29c-.52.08-.73.34-.73.66,0,.35.31.51.73.63Zm1.35,1.68c0-.36-.32-.52-.76-.65v1.29c.53-.08.76-.33.76-.64Z"></path><path d="m632.93,482.82v5.08h-.94v-4.29h-1.07v-.79h2.02Z"></path><path d="m635.69,482.82v5.08h-.94v-4.29h-1.07v-.79h2.02Z"></path><path d="m640.4,486.34c0,.89-.65,1.63-2.01,1.63-.72,0-1.45-.22-1.91-.59l.4-.73c.37.3.92.5,1.5.5.68,0,1.08-.3,1.08-.78s-.31-.79-1.37-.79h-1.23l.26-2.77h2.99v.79h-2.19l-.11,1.18h.49c1.5,0,2.11.65,2.11,1.55Z"></path><path d="m642.1,487.35c0,.16-.04.29-.17.62l-.37,1.02h-.59l.29-1.11c-.2-.09-.34-.28-.34-.54,0-.36.25-.6.59-.6s.59.25.59.6Z"></path><path d="m646.46,487.1v.8h-3.75v-.63l2.02-1.92c.49-.47.58-.77.58-1.05,0-.46-.32-.73-.94-.73-.49,0-.91.17-1.19.53l-.66-.51c.39-.53,1.1-.84,1.93-.84,1.1,0,1.82.56,1.82,1.46,0,.49-.14.94-.84,1.6l-1.36,1.29h2.4Z"></path><path d="m646.99,485.36c0-1.67.92-2.61,2.12-2.61s2.13.94,2.13,2.61-.92,2.61-2.13,2.61-2.12-.94-2.12-2.61Zm3.3,0c0-1.23-.48-1.79-1.18-1.79s-1.17.57-1.17,1.79.48,1.79,1.17,1.79,1.18-.57,1.18-1.79Z"></path></g><g><path class="cls-5" d="m598.38,476.06c-5.37,21.83,7.98,43.88,29.82,49.25,21.83,5.37,43.88-7.98,49.25-29.82,5.37-21.83-7.98-43.88-29.82-49.25-21.83-5.37-43.89,7.98-49.25,29.82Zm16.82,4.13c3.08-12.54,15.75-20.21,28.3-17.13,12.54,3.08,20.21,15.75,17.13,28.3-3.08,12.54-15.75,20.21-28.3,17.13-12.54-3.08-20.21-15.75-17.13-28.3Z"></path><path class="cls-23" d="m603.2,507.08c9.79,15.97,29.85,23.76,48.64,16.96,18.92-6.84,30.09-26.95,25.91-46.63-4.19-19.75-21.71-32.74-40.66-32.34,5.71-.11,9.94,5.29,8.51,10.82-.49,1.9-1.58,3.5-3.05,4.64-1.46,1.14-3.28,1.81-5.25,1.87-.17,0-.32.01-.49.02,11.08-.54,21.43,6.92,23.94,18.39,2.51,11.4-4,23.12-15.01,27.01-10.71,3.78-22.1-.63-27.72-9.69-1.25-2.03-3.2-3.42-5.39-3.96-1.42-.35-2.93-.34-4.4.08-5.49,1.57-8.02,7.95-5.04,12.82Z"></path></g><g><rect class="cls-23" x="567.69" y="554.97" width="3.89" height="12.7"></rect><rect class="cls-23" x="577.44" y="558.25" width="3.89" height="9.42"></rect><rect class="cls-23" x="587.19" y="544.05" width="3.89" height="23.61"></rect><rect class="cls-23" x="596.95" y="538.59" width="3.89" height="29.07"></rect><rect class="cls-23" x="606.71" y="544.05" width="3.89" height="23.61"></rect><rect class="cls-23" x="616.46" y="554.97" width="3.89" height="12.7"></rect><rect class="cls-23" x="626.22" y="557.15" width="3.89" height="10.51"></rect><rect class="cls-23" x="635.97" y="558.25" width="3.89" height="9.42"></rect><rect class="cls-23" x="645.73" y="554.97" width="3.89" height="12.7"></rect><rect class="cls-23" x="655.48" y="549.51" width="3.89" height="18.15"></rect><rect class="cls-23" x="665.24" y="545.14" width="3.89" height="22.52"></rect><rect class="cls-23" x="674.99" y="540.78" width="3.89" height="26.89"></rect><rect class="cls-23" x="684.74" y="535.32" width="3.89" height="32.35"></rect><rect class="cls-23" x="694.5" y="542.96" width="3.89" height="24.7"></rect><rect class="cls-23" x="704.25" y="554.97" width="3.89" height="12.7"></rect><rect class="cls-5" x="587.19" y="544.05" width="3.89" height="5.46"></rect><rect class="cls-5" x="596.95" y="538.59" width="3.89" height="10.92"></rect><rect class="cls-5" x="606.71" y="544.05" width="3.89" height="5.46"></rect><rect class="cls-5" x="665.24" y="545.14" width="3.89" height="4.37"></rect><rect class="cls-5" x="674.99" y="540.78" width="3.89" height="8.73"></rect><rect class="cls-5" x="684.74" y="535.32" width="3.89" height="14.19"></rect><rect class="cls-5" x="694.5" y="542.96" width="3.89" height="6.55"></rect></g><g><path class="cls-23" d="m567.48,583.35h140.88c1.64,0,2.98,1.33,2.98,2.98v17.29c0,1.64-1.33,2.98-2.98,2.98h-140.88c-1.64,0-2.98-1.33-2.98-2.98v-17.29c0-1.64,1.33-2.98,2.98-2.98Z"></path><g class="cls-4"><path class="cls-6" d="m674.77,594.92h-1.29v1.27h-.78v-1.27h-1.29v-.73h1.29v-1.27h.78v1.27h1.29v.73Z"></path><path class="cls-6" d="m679.87,597.15v.81h-.6v-.81c-.71-.04-1.4-.28-1.78-.6l.33-.73c.36.29.9.5,1.45.55v-1.45c-.81-.2-1.67-.46-1.67-1.47,0-.74.54-1.39,1.67-1.5v-.82h.6v.81c.54.03,1.08.19,1.47.44l-.3.73c-.39-.22-.79-.35-1.18-.39v1.47c.81.2,1.68.45,1.68,1.46,0,.74-.54,1.38-1.68,1.5Zm-.6-3.11v-1.29c-.52.08-.73.34-.73.66,0,.35.31.51.73.63Zm1.35,1.68c0-.36-.32-.52-.76-.65v1.29c.53-.08.76-.33.76-.64Z"></path><path class="cls-6" d="m687.96,592.01v.63l-1.98,4.45h-1.01l1.91-4.29h-2v.86h-.88v-1.66h3.95Z"></path><path class="cls-6" d="m692.11,595.53c0,.89-.65,1.63-2.01,1.63-.72,0-1.45-.22-1.91-.59l.4-.73c.37.3.92.5,1.5.5.68,0,1.08-.3,1.08-.78s-.31-.79-1.37-.79h-1.23l.26-2.77h2.98v.79h-2.19l-.11,1.18h.49c1.5,0,2.11.65,2.11,1.55Z"></path><path class="cls-6" d="m693.81,596.54c0,.16-.04.29-.17.62l-.37,1.02h-.59l.29-1.11c-.2-.09-.34-.28-.34-.54,0-.36.25-.6.59-.6s.59.25.59.6Z"></path><path class="cls-6" d="m694.33,594.55c0-1.67.91-2.61,2.12-2.61s2.13.94,2.13,2.61-.92,2.62-2.13,2.62-2.12-.94-2.12-2.62Zm3.3,0c0-1.23-.48-1.79-1.18-1.79s-1.17.57-1.17,1.79.48,1.79,1.17,1.79,1.18-.57,1.18-1.79Z"></path><path class="cls-6" d="m702.92,595.53c0,.89-.65,1.63-2.01,1.63-.72,0-1.45-.22-1.91-.59l.4-.73c.37.3.92.5,1.5.5.68,0,1.08-.3,1.08-.78s-.31-.79-1.37-.79h-1.23l.26-2.77h2.98v.79h-2.19l-.11,1.18h.49c1.5,0,2.11.65,2.11,1.55Z"></path></g><g><path class="cls-2" d="m609.3,593.21h-34.18c-.72,0-1.3-.58-1.3-1.3h0c0-.72.58-1.3,1.3-1.3h34.18c.72,0,1.3.58,1.3,1.3h0c0,.72-.58,1.3-1.3,1.3Z"></path><path class="cls-2" d="m594.02,599.34h-18.9c-.72,0-1.3-.58-1.3-1.3h0c0-.72.58-1.3,1.3-1.3h18.9c.72,0,1.3.58,1.3,1.3h0c0,.72-.58,1.3-1.3,1.3Z"></path></g><path class="cls-23" d="m567.48,615.01h140.88c1.64,0,2.98,1.33,2.98,2.98v17.29c0,1.64-1.33,2.98-2.98,2.98h-140.88c-1.64,0-2.98-1.33-2.98-2.98v-17.29c0-1.64,1.33-2.98,2.98-2.98Z"></path><g class="cls-4"><path class="cls-6" d="m672.26,626.36h2v.75h-2v-.75Z"></path><path class="cls-6" d="m679.29,628.81v.81h-.6v-.81c-.71-.04-1.4-.28-1.78-.6l.33-.73c.36.29.9.5,1.45.55v-1.45c-.81-.2-1.67-.46-1.67-1.47,0-.74.54-1.39,1.67-1.5v-.82h.6v.81c.54.03,1.08.19,1.47.44l-.3.73c-.39-.22-.79-.35-1.18-.39v1.47c.81.2,1.68.45,1.68,1.46,0,.74-.54,1.38-1.68,1.5Zm-.6-3.11v-1.29c-.52.08-.73.34-.73.66,0,.35.31.51.73.63Zm1.35,1.68c0-.36-.32-.52-.76-.65v1.29c.53-.08.76-.33.76-.64Z"></path><path class="cls-6" d="m687.24,627.19c0,.89-.65,1.63-2.01,1.63-.72,0-1.45-.22-1.91-.59l.4-.73c.37.3.92.5,1.5.5.68,0,1.08-.3,1.08-.78s-.31-.79-1.37-.79h-1.23l.26-2.77h2.99v.79h-2.19l-.11,1.18h.49c1.5,0,2.11.65,2.11,1.55Z"></path><path class="cls-6" d="m691.45,627.19c0,.89-.65,1.63-2.01,1.63-.72,0-1.45-.22-1.91-.59l.4-.73c.37.3.92.5,1.5.5.68,0,1.08-.3,1.08-.78s-.31-.79-1.37-.79h-1.23l.26-2.77h2.99v.79h-2.19l-.11,1.18h.49c1.5,0,2.11.65,2.11,1.55Z"></path><path class="cls-6" d="m693.15,628.2c0,.16-.04.29-.17.62l-.37,1.02h-.59l.29-1.11c-.2-.09-.34-.28-.34-.54,0-.36.25-.6.59-.6s.59.25.59.6Z"></path><path class="cls-6" d="m698.26,627.6h-.9v1.15h-.92v-1.15h-2.79v-.65l2.51-3.27h1.01l-2.36,3.13h1.66v-1.02h.89v1.02h.9v.8Z"></path><path class="cls-6" d="m702.85,627.29c0,.94-.82,1.53-2.08,1.53s-2.07-.59-2.07-1.53c0-.56.29-.97.81-1.21-.41-.22-.63-.59-.63-1.07,0-.87.76-1.42,1.89-1.42s1.9.54,1.9,1.42c0,.48-.23.84-.65,1.07.53.24.83.65.83,1.21Zm-.95-.03c0-.5-.44-.81-1.13-.81s-1.12.31-1.12.81.42.82,1.12.82,1.13-.3,1.13-.82Zm-2.09-2.21c0,.44.36.71.96.71s.97-.28.97-.71c0-.46-.39-.72-.97-.72s-.96.26-.96.72Z"></path></g><g><path class="cls-2" d="m609.3,624.86h-34.18c-.72,0-1.3-.58-1.3-1.3h0c0-.72.58-1.3,1.3-1.3h34.18c.72,0,1.3.58,1.3,1.3h0c0,.72-.58,1.3-1.3,1.3Z"></path><path class="cls-2" d="m594.02,631h-18.9c-.72,0-1.3-.58-1.3-1.3h0c0-.72.58-1.3,1.3-1.3h18.9c.72,0,1.3.58,1.3,1.3h0c0,.72-.58,1.3-1.3,1.3Z"></path></g><path class="cls-23" d="m567.48,646.67h140.88c1.64,0,2.98,1.33,2.98,2.98v17.29c0,1.64-1.33,2.98-2.98,2.98h-140.88c-1.64,0-2.98-1.33-2.98-2.98v-17.29c0-1.64,1.33-2.98,2.98-2.98Z"></path><g class="cls-4"><path class="cls-6" d="m675.6,658.23h-1.29v1.27h-.78v-1.27h-1.29v-.73h1.29v-1.27h.78v1.27h1.29v.73Z"></path><path class="cls-6" d="m680.7,660.47v.81h-.6v-.81c-.71-.04-1.4-.28-1.78-.6l.33-.73c.36.29.9.5,1.45.55v-1.45c-.81-.2-1.67-.46-1.67-1.47,0-.74.54-1.39,1.67-1.5v-.82h.6v.81c.54.03,1.08.19,1.47.44l-.3.73c-.38-.22-.79-.35-1.18-.39v1.47c.81.2,1.68.45,1.68,1.46,0,.74-.54,1.38-1.68,1.5Zm-.6-3.11v-1.29c-.52.08-.73.34-.73.66,0,.35.31.51.73.63Zm1.35,1.68c0-.36-.32-.52-.76-.65v1.29c.53-.08.76-.33.76-.64Z"></path><path class="cls-6" d="m686.71,655.33v5.08h-.94v-4.29h-1.08v-.79h2.02Z"></path><path class="cls-6" d="m691.85,658.95c0,.94-.82,1.53-2.08,1.53s-2.07-.59-2.07-1.53c0-.56.29-.97.81-1.21-.41-.22-.63-.59-.63-1.07,0-.87.76-1.42,1.89-1.42s1.9.54,1.9,1.42c0,.48-.23.84-.65,1.07.53.24.83.65.83,1.21Zm-.95-.03c0-.5-.44-.81-1.13-.81s-1.12.31-1.12.81.42.82,1.12.82,1.13-.3,1.13-.82Zm-2.09-2.21c0,.44.36.71.96.71s.97-.28.97-.71c0-.46-.39-.72-.97-.72s-.96.26-.96.72Z"></path><path class="cls-6" d="m693.69,659.86c0,.16-.04.29-.17.62l-.37,1.02h-.59l.29-1.11c-.2-.09-.34-.28-.34-.54,0-.36.25-.6.59-.6s.59.25.59.6Z"></path><path class="cls-6" d="m698.05,659.61v.8h-3.75v-.63l2.02-1.92c.49-.47.58-.77.58-1.05,0-.46-.32-.73-.94-.73-.49,0-.91.17-1.19.53l-.66-.51c.39-.53,1.1-.84,1.93-.84,1.1,0,1.82.56,1.82,1.46,0,.49-.14.94-.84,1.61l-1.36,1.29h2.4Z"></path><path class="cls-6" d="m698.57,657.87c0-1.67.91-2.61,2.12-2.61s2.13.94,2.13,2.61-.92,2.62-2.13,2.62-2.12-.94-2.12-2.62Zm3.3,0c0-1.23-.48-1.79-1.18-1.79s-1.17.57-1.17,1.79.48,1.79,1.17,1.79,1.18-.57,1.18-1.79Z"></path></g><g><path class="cls-2" d="m609.3,656.52h-34.18c-.72,0-1.3-.58-1.3-1.3h0c0-.72.58-1.3,1.3-1.3h34.18c.72,0,1.3.58,1.3,1.3h0c0,.72-.58,1.3-1.3,1.3Z"></path><path class="cls-2" d="m594.02,662.66h-18.9c-.72,0-1.3-.58-1.3-1.3h0c0-.72.58-1.3,1.3-1.3h18.9c.72,0,1.3.58,1.3,1.3h0c0,.72-.58,1.3-1.3,1.3Z"></path></g></g><g><path class="cls-6" d="m615.93,400.39h-2.38v-8.4h6.59v1.84h-4.21v6.56Zm-.17-4.72h3.88v1.84h-3.88v-1.84Z"></path><path class="cls-6" d="m621.26,400.39v-8.4h2.38v8.4h-2.38Z"></path><path class="cls-6" d="m625.32,400.39v-8.4h1.96l4.63,5.59h-.92v-5.59h2.33v8.4h-1.96l-4.63-5.59h.92v5.59h-2.33Z"></path><path class="cls-6" d="m636.78,400.39v-6.52h-2.58v-1.88h7.52v1.88h-2.57v6.52h-2.38Z"></path><path class="cls-6" d="m644.97,398.56h4.39v1.84h-6.74v-8.4h6.59v1.84h-4.24v4.73Zm-.17-3.31h3.9v1.78h-3.9v-1.78Z"></path><path class="cls-6" d="m654.87,400.56c-.66,0-1.28-.11-1.84-.32-.56-.21-1.05-.51-1.46-.91-.41-.39-.73-.85-.97-1.39-.23-.53-.35-1.12-.35-1.76s.12-1.23.35-1.76.55-.99.97-1.39c.41-.39.9-.69,1.46-.91.56-.21,1.18-.32,1.84-.32.78,0,1.47.14,2.08.41.61.27,1.12.66,1.53,1.18l-1.51,1.37c-.27-.32-.57-.56-.89-.73-.32-.17-.69-.25-1.09-.25-.34,0-.66.06-.95.17-.29.11-.53.27-.74.49s-.36.47-.48.76c-.12.3-.17.62-.17.98s.06.69.17.98c.12.3.28.55.48.76s.45.37.74.49.6.17.95.17c.4,0,.76-.08,1.09-.25.32-.17.62-.41.89-.73l1.51,1.37c-.41.5-.92.89-1.53,1.17-.61.28-1.31.41-2.08.41Z"></path><path class="cls-6" d="m661.91,400.39h-2.38v-8.4h2.38v8.4Zm3.41-3.28h-3.58v-1.97h3.58v1.97Zm-.17-5.12h2.38v8.4h-2.38v-8.4Z"></path></g></svg> 